<svg width="48" height="48" viewBox="0 0 48 48" fill="none" xmlns="http://www.w3.org/2000/svg">
<path d="M36.35 44C34.7667 44 33.4208 43.4442 32.3125 42.3327C31.2042 41.2211 30.65 39.8714 30.65 38.2835C30.65 38.0611 30.675 37.7893 30.725 37.4678C30.775 37.1464 30.85 36.8571 30.95 36.6L15.8 27.8C15.3 28.3667 14.6833 28.825 13.95 29.175C13.2167 29.525 12.4667 29.7 11.7 29.7C10.1167 29.7 8.77083 29.1458 7.6625 28.0375C6.55417 26.9292 6 25.5833 6 24C6 22.4167 6.55417 21.0708 7.6625 19.9625C8.77083 18.8542 10.1167 18.3 11.7 18.3C12.4667 18.3 13.2 18.45 13.9 18.75C14.6 19.05 15.2333 19.4833 15.8 20.05L30.95 11.35C30.85 11.1143 30.775 10.8491 30.725 10.5544C30.675 10.2598 30.65 9.975 30.65 9.7C30.65 8.11667 31.2042 6.77083 32.3125 5.6625C33.4208 4.55417 34.7667 4 36.35 4C37.9333 4 39.2792 4.55417 40.3875 5.6625C41.4958 6.77083 42.05 8.11667 42.05 9.7C42.05 11.2833 41.4958 12.6292 40.3875 13.7375C39.2792 14.8458 37.9333 15.4 36.35 15.4C35.5715 15.4 34.8269 15.275 34.1161 15.025C33.4054 14.775 32.8 14.3667 32.3 13.8L17.15 22.2C17.2167 22.4667 17.275 22.775 17.325 23.125C17.375 23.475 17.4 23.7707 17.4 24.0121C17.4 24.2535 17.375 24.5035 17.325 24.7621C17.275 25.0207 17.2167 25.2833 17.15 25.55L32.3 34.15C32.8 33.6833 33.3833 33.3083 34.05 33.025C34.7167 32.7417 35.4833 32.6 36.35 32.6C37.9333 32.6 39.2792 33.1542 40.3875 34.2625C41.4958 35.3708 42.05 36.7167 42.05 38.3C42.05 39.8833 41.4958 41.2292 40.3875 42.3375C39.2792 43.4458 37.9333 44 36.35 44ZM36.3517 12.4C37.1172 12.4 37.7583 12.1411 38.275 11.6233C38.7917 11.1054 39.05 10.4637 39.05 9.69825C39.05 8.93275 38.7911 8.29167 38.2733 7.775C37.7554 7.25833 37.1138 7 36.3483 7C35.5828 7 34.9417 7.25892 34.425 7.77675C33.9083 8.29458 33.65 8.93625 33.65 9.70175C33.65 10.4673 33.9089 11.1083 34.4267 11.625C34.9446 12.1417 35.5862 12.4 36.3517 12.4ZM11.7018 26.7C12.4673 26.7 13.1083 26.4411 13.625 25.9233C14.1417 25.4054 14.4 24.7638 14.4 23.9983C14.4 23.2328 14.1411 22.5917 13.6233 22.075C13.1054 21.5583 12.4637 21.3 11.6982 21.3C10.9327 21.3 10.2917 21.5589 9.775 22.0767C9.25833 22.5946 9 23.2362 9 24.0017C9 24.7672 9.25892 25.4083 9.77675 25.925C10.2946 26.4417 10.9363 26.7 11.7018 26.7ZM36.3517 41C37.1172 41 37.7583 40.7411 38.275 40.2233C38.7917 39.7054 39.05 39.0638 39.05 38.2983C39.05 37.5328 38.7911 36.8917 38.2733 36.375C37.7554 35.8583 37.1138 35.6 36.3483 35.6C35.5828 35.6 34.9417 35.8589 34.425 36.3768C33.9083 36.8946 33.65 37.5362 33.65 38.3018C33.65 39.0672 33.9089 39.7083 34.4267 40.225C34.9446 40.7417 35.5862 41 36.3517 41Z" fill="#818181"/>
</svg>
